<?xml version="1.0" encoding="utf-8"?>
<!-- Generator: Adobe Illustrator 16.0.5, SVG Export Plug-In . SVG Version: 6.00 Build 0)  -->
<!DOCTYPE svg PUBLIC "-//W3C//DTD SVG 1.1//EN" "http://www.w3.org/Graphics/SVG/1.1/DTD/svg11.dtd">
<svg version="1.1" id="Layer_1" xmlns="http://www.w3.org/2000/svg" xmlns:xlink="http://www.w3.org/1999/xlink" x="0px" y="0px"
	 width="438.493px" height="101.772px" viewBox="0 0 438.493 101.772" enable-background="new 0 0 438.493 101.772"
	 xml:space="preserve">
<g>
	<defs>
		<rect id="SVGID_1_" width="438.493" height="101.772"/>
	</defs>
	<clipPath id="SVGID_2_">
		<use xlink:href="#SVGID_1_"  overflow="visible"/>
	</clipPath>
	<path clip-path="url(#SVGID_2_)" fill="#717073" d="M4.189,97.5V82.233h5.763c1.18,0,2.115,0.044,3.139,0.711
		c1.023,0.69,1.602,1.759,1.602,3.005c0,1.736-1.024,3.026-2.693,3.427v0.045c1.892,0.4,3.16,1.914,3.16,3.872
		c0,1.292-0.444,2.426-1.468,3.229c-1.159,0.91-2.36,0.978-3.762,0.978H4.189z M9.063,88.776c0.956,0,2.002,0.021,2.781-0.58
		c0.624-0.444,0.957-1.269,0.957-2.002c0-0.912-0.356-1.559-1.135-2.024c-0.667-0.379-1.358-0.379-2.114-0.379h-3.45v4.985H9.063z
		 M9.841,95.874c0.846,0,1.78-0.089,2.448-0.621c0.646-0.491,0.956-1.225,0.956-2.048c0-0.913-0.4-1.825-1.112-2.381
		c-0.734-0.58-1.69-0.58-2.559-0.58H6.103v5.63H9.841z"/>
	<path clip-path="url(#SVGID_2_)" fill="#717073" d="M24.746,90.488V90c0-1.981-0.868-2.737-2.871-2.737
		c-1.424,0-2.782,0.444-3.094,2.002L17.157,89c0.311-2.361,2.804-3.097,4.874-3.097c1.224,0,2.626,0.135,3.471,1.115
		c0.935,1,0.935,2.425,0.935,3.716v4.385c0,0.822,0.022,1.646,0.246,2.381h-1.737l-0.2-2.115c-0.802,1.625-2.159,2.337-3.961,2.337
		c-2.115,0-3.94-1.178-3.94-3.428c0-1.357,0.845-2.58,2.092-3.136c1.269-0.603,2.938-0.67,4.339-0.67H24.746z M24.746,91.802h-1.447
		c-1.78,0-4.585,0.244-4.585,2.582c0,1.4,1.203,1.98,2.449,1.98c2.136,0,3.583-1.825,3.583-3.828V91.802z"/>
	<path clip-path="url(#SVGID_2_)" fill="#717073" d="M30.827,88.287h0.045c0.645-1.402,1.914-2.384,3.516-2.384
		c1.358,0,2.492,0.58,3.204,1.76c0.579,0.958,0.535,2.471,0.535,3.583V97.5h-1.736v-6.988c0-0.668,0.022-1.512-0.312-2.092
		c-0.377-0.646-1.201-1.025-1.936-1.025c-0.912,0-1.736,0.425-2.336,1.137c-0.734,0.891-0.891,1.914-0.891,3.049v5.92h-1.735V86.193
		h1.646V88.287z"/>
	<polygon clip-path="url(#SVGID_2_)" fill="#717073" points="48.771,97.5 45.479,91.2 43.051,94.006 43.051,97.5 41.316,97.5 
		41.316,82.232 43.051,82.232 43.051,92.002 48.283,86.239 50.151,86.239 46.636,90.2 50.619,97.5 	"/>
	<path clip-path="url(#SVGID_2_)" fill="#717073" d="M58.374,91.756c0-3.136,1.782-5.854,5.186-5.854
		c3.315,0,4.963,2.895,4.963,5.877c0,3.162-1.826,5.941-5.253,5.941C59.887,97.721,58.374,94.74,58.374,91.756 M66.029,94.651
		c0.467-0.891,0.556-1.914,0.556-2.895c0-1.066-0.133-2.18-0.712-3.093c-0.533-0.823-1.468-1.336-2.448-1.336
		c-1.09,0-2.069,0.624-2.559,1.604c-0.422,0.823-0.557,1.913-0.557,2.825c0,1.024,0.156,2.204,0.646,3.095
		c0.49,0.867,1.446,1.426,2.47,1.426C64.583,96.277,65.494,95.674,66.029,94.651"/>
	<path clip-path="url(#SVGID_2_)" fill="#717073" d="M75.601,87.575h-2.627V97.5h-1.736v-9.925h-2.002v-1.382h2.002
		c-0.089-2.381,0.735-4.45,3.472-4.184l1.558,0.155v1.402c-0.467-0.088-0.934-0.177-1.425-0.177c-1.913,0-1.89,1.378-1.869,2.803
		h2.627V87.575z"/>
	<path clip-path="url(#SVGID_2_)" fill="#717073" d="M92.766,97.5l-1.535-4.45h-5.653l-1.357,4.45h-1.604l4.941-15.268h2.204
		L94.725,97.5H92.766z M88.471,84.28l-2.359,7.321h4.696L88.471,84.28z"/>
	<path clip-path="url(#SVGID_2_)" fill="#717073" d="M97.936,86.194v2.182h0.044c0.58-1.357,1.803-2.472,3.383-2.472
		c1.647,0,2.826,1.114,3.182,2.692c0.623-1.557,1.914-2.692,3.651-2.692c1.157,0,2.269,0.646,2.848,1.625
		c0.557,0.935,0.534,2.182,0.534,3.227V97.5h-1.736v-6.744c0-0.756,0.044-1.557-0.312-2.248c-0.378-0.734-1.112-1.18-1.891-1.18
		c-0.868,0-1.669,0.535-2.182,1.269c-0.645,0.913-0.622,1.736-0.622,2.806V97.5h-1.736v-7.167c0-0.622-0.044-1.357-0.379-1.913
		c-0.4-0.668-1.135-1.092-1.891-1.092c-0.779,0-1.581,0.513-2.047,1.113c-0.579,0.735-0.691,1.646-0.691,2.582V97.5h-1.736V86.194
		H97.936z"/>
	<path clip-path="url(#SVGID_2_)" fill="#717073" d="M123.699,94.406c-0.668,2.069-2.648,3.315-4.806,3.315
		c-3.428,0-5.186-2.714-5.186-5.874c0-3.116,1.848-5.944,5.23-5.944c3.516,0,5.029,2.939,4.94,6.076h-8.212
		c0,0.891,0.045,1.715,0.468,2.561c0.535,1.068,1.713,1.713,2.892,1.713c1.469,0,2.538-0.844,3.027-2.18L123.699,94.406z
		 M121.964,90.69c0.022-1.871-1.024-3.45-3.027-3.45c-1.892,0-3.117,1.668-3.182,3.45H121.964z"/>
	<path clip-path="url(#SVGID_2_)" fill="#717073" d="M127.921,86.194v2.648h0.045c0.534-1.537,1.491-2.961,3.316-2.961l0.645,0.045
		v1.67h-0.356c-1.336,0-2.27,0.645-2.916,1.779c-0.466,0.824-0.556,1.537-0.556,2.427V97.5h-1.735V86.194H127.921z"/>
	<path clip-path="url(#SVGID_2_)" fill="#717073" d="M136.003,84.191h-1.915v-1.959h1.915V84.191z M135.914,97.499h-1.735V86.193
		h1.735V97.499z"/>
	<path clip-path="url(#SVGID_2_)" fill="#717073" d="M147.646,93.761c-0.4,2.292-1.936,3.961-4.362,3.961
		c-3.361,0-4.807-2.915-4.807-5.874c0-2.94,1.468-5.945,4.828-5.945c2.449,0,3.962,1.581,4.341,3.918l-1.603,0.291
		c-0.156-1.492-1.068-2.738-2.692-2.738c-2.359,0-3.027,2.471-3.027,4.361c0,1.825,0.556,4.496,2.915,4.496
		c1.691,0,2.515-1.224,2.804-2.76L147.646,93.761z"/>
	<path clip-path="url(#SVGID_2_)" fill="#717073" d="M157.288,90.488V90c0-1.981-0.868-2.737-2.872-2.737
		c-1.424,0-2.781,0.444-3.093,2.002L149.699,89c0.311-2.361,2.804-3.097,4.873-3.097c1.224,0,2.626,0.135,3.473,1.115
		c0.933,1,0.933,2.425,0.933,3.716v4.385c0,0.822,0.023,1.646,0.246,2.381h-1.736l-0.2-2.115c-0.802,1.625-2.159,2.337-3.961,2.337
		c-2.116,0-3.94-1.178-3.94-3.428c0-1.357,0.845-2.58,2.092-3.136c1.268-0.603,2.937-0.67,4.339-0.67H157.288z M157.288,91.802
		h-1.447c-1.781,0-4.585,0.244-4.585,2.582c0,1.4,1.202,1.98,2.448,1.98c2.137,0,3.584-1.825,3.584-3.828V91.802z"/>
	<path clip-path="url(#SVGID_2_)" fill="#717073" d="M168.291,97.5V82.233h5.118c1.314,0,2.627,0.154,3.672,1.022
		c1.002,0.846,1.559,2.271,1.559,3.562c0,1.179-0.49,2.402-1.335,3.227c-1.025,1.001-2.293,1.247-3.673,1.247h-3.427V97.5H168.291z
		 M173.432,89.71c0.912,0,1.713-0.09,2.425-0.779c0.556-0.556,0.846-1.335,0.846-2.113c0-0.915-0.333-1.825-1.067-2.403
		c-0.646-0.513-1.292-0.58-2.071-0.58h-3.36v5.876H173.432z"/>
	<path clip-path="url(#SVGID_2_)" fill="#717073" d="M182.496,86.194v2.648h0.045c0.533-1.537,1.491-2.961,3.315-2.961l0.646,0.045
		v1.67h-0.356c-1.336,0-2.27,0.645-2.916,1.779c-0.467,0.824-0.556,1.537-0.556,2.427V97.5h-1.736V86.194H182.496z"/>
	<path clip-path="url(#SVGID_2_)" fill="#717073" d="M190.578,84.191h-1.915v-1.959h1.915V84.191z M190.488,97.499h-1.734V86.193
		h1.734V97.499z"/>
	<polygon clip-path="url(#SVGID_2_)" fill="#717073" points="198.236,97.5 196.411,97.5 192.383,86.193 194.319,86.193 
		197.479,95.385 200.573,86.193 202.131,86.193 	"/>
	<path clip-path="url(#SVGID_2_)" fill="#717073" d="M211.216,90.488V90c0-1.981-0.868-2.737-2.871-2.737
		c-1.425,0-2.782,0.444-3.093,2.002L203.627,89c0.312-2.361,2.804-3.097,4.874-3.097c1.224,0,2.626,0.135,3.472,1.115
		c0.934,1,0.934,2.425,0.934,3.716v4.385c0,0.822,0.022,1.646,0.245,2.381h-1.735l-0.201-2.115
		c-0.802,1.625-2.159,2.337-3.961,2.337c-2.115,0-3.94-1.178-3.94-3.428c0-1.357,0.846-2.58,2.092-3.136
		c1.269-0.603,2.938-0.67,4.34-0.67H211.216z M211.216,91.802h-1.447c-1.78,0-4.584,0.244-4.584,2.582c0,1.4,1.202,1.98,2.448,1.98
		c2.136,0,3.583-1.825,3.583-3.828V91.802z"/>
	<path clip-path="url(#SVGID_2_)" fill="#717073" d="M221.255,97.587l-1.669,0.134c-2.47,0-3.206-1.444-3.206-3.693v-6.543h-2.002
		v-1.379h2.002V83.3l1.737-0.178v2.983h2.514v1.379h-2.514v6.833c0,1.311,0.378,2.001,1.803,2.001l1.335-0.11V97.587z"/>
	<path clip-path="url(#SVGID_2_)" fill="#717073" d="M232.252,94.406c-0.668,2.069-2.647,3.315-4.807,3.315
		c-3.427,0-5.186-2.714-5.186-5.874c0-3.116,1.848-5.944,5.23-5.944c3.516,0,5.03,2.939,4.939,6.076h-8.212
		c0,0.891,0.044,1.715,0.469,2.561c0.533,1.068,1.713,1.713,2.892,1.713c1.469,0,2.538-0.844,3.027-2.18L232.252,94.406z
		 M230.518,90.69c0.021-1.871-1.024-3.45-3.027-3.45c-1.893,0-3.116,1.668-3.183,3.45H230.518z"/>
	<polygon clip-path="url(#SVGID_2_)" fill="#717073" points="254.54,97.5 252.627,97.5 249.312,85.659 246.194,97.5 244.258,97.5 
		240.386,82.232 242.345,82.232 245.394,94.605 245.438,94.605 248.664,82.232 250.2,82.232 253.672,94.605 253.716,94.605 
		256.544,82.232 258.213,82.232 	"/>
	<path clip-path="url(#SVGID_2_)" fill="#717073" d="M268.967,94.406c-0.669,2.069-2.648,3.315-4.808,3.315
		c-3.427,0-5.185-2.714-5.185-5.874c0-3.116,1.847-5.944,5.229-5.944c3.517,0,5.029,2.939,4.94,6.076h-8.214
		c0,0.891,0.046,1.715,0.469,2.561c0.534,1.068,1.713,1.713,2.893,1.713c1.469,0,2.538-0.844,3.029-2.18L268.967,94.406z
		 M267.231,90.69c0.021-1.871-1.024-3.45-3.027-3.45c-1.893,0-3.116,1.668-3.181,3.45H267.231z"/>
	<path clip-path="url(#SVGID_2_)" fill="#717073" d="M278.587,90.488V90c0-1.981-0.867-2.737-2.872-2.737
		c-1.422,0-2.779,0.444-3.093,2.002L270.999,89c0.311-2.361,2.804-3.097,4.873-3.097c1.224,0,2.625,0.135,3.473,1.115
		c0.933,1,0.933,2.425,0.933,3.716v4.385c0,0.822,0.022,1.646,0.246,2.381h-1.736l-0.2-2.115c-0.803,1.625-2.159,2.337-3.96,2.337
		c-2.115,0-3.94-1.178-3.94-3.428c0-1.357,0.845-2.58,2.091-3.136c1.271-0.603,2.938-0.67,4.34-0.67H278.587z M278.587,91.802
		h-1.446c-1.78,0-4.585,0.244-4.585,2.582c0,1.4,1.203,1.98,2.449,1.98c2.136,0,3.582-1.825,3.582-3.828V91.802z"/>
	<rect x="283.29" y="82.232" clip-path="url(#SVGID_2_)" fill="#717073" width="1.735" height="15.267"/>
	<path clip-path="url(#SVGID_2_)" fill="#717073" d="M294.02,97.587l-1.671,0.134c-2.469,0-3.203-1.444-3.203-3.693v-6.543h-2.005
		v-1.379h2.005V83.3l1.735-0.178v2.983h2.515v1.379h-2.515v6.833c0,1.311,0.378,2.001,1.802,2.001l1.337-0.11V97.587z"/>
	<path clip-path="url(#SVGID_2_)" fill="#717073" d="M303.168,97.5v-6.588c0-0.689,0-1.579-0.242-2.249
		c-0.313-0.844-1.114-1.335-2.026-1.335c-0.89,0-1.737,0.534-2.292,1.203c-0.779,0.934-0.868,1.98-0.868,3.16V97.5h-1.737V82.232
		h1.737v6.054h0.066c0.712-1.514,1.759-2.383,3.517-2.383c1.201,0,2.337,0.559,2.982,1.581c0.689,1.113,0.6,2.183,0.6,3.428V97.5
		H303.168z"/>
	<polygon clip-path="url(#SVGID_2_)" fill="#717073" points="316.533,97.5 314.93,97.5 314.93,82.232 317.779,82.232 322.385,94.45 
		326.882,82.232 329.685,82.232 329.685,97.5 327.771,97.5 327.771,84.169 327.681,84.169 322.852,97.5 321.562,97.5 
		316.622,84.169 316.533,84.169 	"/>
	<path clip-path="url(#SVGID_2_)" fill="#717073" d="M339.85,90.488V90c0-1.981-0.87-2.737-2.872-2.737
		c-1.425,0-2.781,0.444-3.094,2.002L332.259,89c0.313-2.361,2.805-3.097,4.873-3.097c1.226,0,2.627,0.135,3.474,1.115
		c0.933,1,0.933,2.425,0.933,3.716v4.385c0,0.822,0.025,1.646,0.247,2.381h-1.737l-0.198-2.115
		c-0.803,1.625-2.159,2.337-3.965,2.337c-2.112,0-3.938-1.178-3.938-3.428c0-1.357,0.845-2.58,2.093-3.136
		c1.269-0.603,2.938-0.67,4.34-0.67H339.85z M339.85,91.802h-1.447c-1.781,0-4.584,0.244-4.584,2.582c0,1.4,1.201,1.98,2.447,1.98
		c2.137,0,3.584-1.825,3.584-3.828V91.802z"/>
	<path clip-path="url(#SVGID_2_)" fill="#717073" d="M345.93,88.287h0.046c0.644-1.402,1.914-2.384,3.517-2.384
		c1.356,0,2.49,0.58,3.203,1.76c0.579,0.958,0.535,2.471,0.535,3.583V97.5h-1.735v-6.988c0-0.668,0.021-1.512-0.312-2.092
		c-0.379-0.646-1.202-1.025-1.938-1.025c-0.914,0-1.737,0.425-2.337,1.137c-0.734,0.891-0.888,1.914-0.888,3.049v5.92h-1.738V86.193
		h1.646V88.287z"/>
	<path clip-path="url(#SVGID_2_)" fill="#717073" d="M363.897,90.488V90c0-1.981-0.868-2.737-2.871-2.737
		c-1.426,0-2.782,0.444-3.094,2.002L356.307,89c0.313-2.361,2.807-3.097,4.874-3.097c1.227,0,2.627,0.135,3.474,1.115
		c0.934,1,0.934,2.425,0.934,3.716v4.385c0,0.822,0.023,1.646,0.245,2.381h-1.736l-0.199-2.115
		c-0.803,1.625-2.159,2.337-3.963,2.337c-2.112,0-3.938-1.178-3.938-3.428c0-1.357,0.844-2.58,2.091-3.136
		c1.269-0.603,2.938-0.67,4.34-0.67H363.897z M363.897,91.802h-1.447c-1.781,0-4.584,0.244-4.584,2.582c0,1.4,1.201,1.98,2.448,1.98
		c2.136,0,3.583-1.825,3.583-3.828V91.802z"/>
	<path clip-path="url(#SVGID_2_)" fill="#717073" d="M377.502,84.435l0.442,0.022l0.024,1.402h-0.179
		c-1.024,0-1.824,0.11-2.002,1.291c0.688,0.757,1.09,1.757,1.09,2.78c0,1.113-0.602,2.161-1.447,2.828
		c-0.823,0.622-1.845,0.867-2.871,0.867c-0.266,0-0.533,0-0.799-0.066c-0.18-0.021-0.536-0.11-0.735-0.11
		c-0.535,0-1.204,0.468-1.204,1.045c0,0.535,0.357,0.823,0.847,0.957c0.779,0.177,1.87,0.156,2.672,0.177
		c0.979,0.046,2.426,0.068,3.315,0.401c1.046,0.402,1.736,1.381,1.736,2.494c0,2.869-3.406,3.249-5.587,3.249
		c-1.044,0-2.336-0.068-3.315-0.446c-1.091-0.444-1.936-1.245-1.936-2.492c0-1.179,0.644-1.913,1.713-2.292
		c-0.645-0.422-1.091-0.935-1.091-1.781c0-1.112,0.645-1.603,1.558-2.024c-0.957-0.758-1.468-1.758-1.468-2.982
		c0-2.449,2.07-3.852,4.338-3.852c0.78,0,1.58,0.156,2.292,0.491C375.186,84.791,375.966,84.435,377.502,84.435 M373.207,97.234
		l-2.717-0.181c-0.669,0.312-1.224,0.736-1.224,1.537c0,1.558,2.404,1.825,3.56,1.825c0.847,0,2.159-0.134,2.918-0.49
		c0.62-0.268,0.979-0.645,0.979-1.335c0-1.158-1.537-1.313-2.404-1.336L373.207,97.234z M375.12,89.754
		c0-1.425-1.136-2.47-2.517-2.47c-1.468,0-2.537,1.045-2.537,2.492c0,1.535,1.003,2.492,2.537,2.492
		C374.117,92.269,375.12,91.267,375.12,89.754"/>
	<path clip-path="url(#SVGID_2_)" fill="#717073" d="M388.501,94.406c-0.666,2.069-2.647,3.315-4.807,3.315
		c-3.426,0-5.186-2.714-5.186-5.874c0-3.116,1.847-5.944,5.229-5.944c3.518,0,5.03,2.939,4.94,6.076h-8.212
		c0,0.891,0.045,1.715,0.468,2.561c0.534,1.068,1.714,1.713,2.893,1.713c1.469,0,2.538-0.844,3.027-2.18L388.501,94.406z
		 M386.766,90.69c0.022-1.871-1.023-3.45-3.027-3.45c-1.89,0-3.115,1.668-3.182,3.45H386.766z"/>
	<path clip-path="url(#SVGID_2_)" fill="#717073" d="M392.554,86.194v2.182h0.044c0.579-1.357,1.803-2.472,3.383-2.472
		c1.646,0,2.827,1.114,3.183,2.692c0.622-1.557,1.914-2.692,3.65-2.692c1.158,0,2.27,0.646,2.849,1.625
		c0.557,0.935,0.534,2.182,0.534,3.227V97.5h-1.738v-6.744c0-0.756,0.046-1.557-0.31-2.248c-0.378-0.734-1.113-1.18-1.893-1.18
		c-0.867,0-1.67,0.535-2.182,1.269c-0.644,0.913-0.622,1.736-0.622,2.806V97.5h-1.735v-7.167c0-0.622-0.045-1.357-0.378-1.913
		c-0.401-0.668-1.137-1.092-1.893-1.092c-0.778,0-1.58,0.513-2.047,1.113c-0.579,0.735-0.691,1.646-0.691,2.582V97.5h-1.734V86.194
		H392.554z"/>
	<path clip-path="url(#SVGID_2_)" fill="#717073" d="M418.315,94.406c-0.667,2.069-2.646,3.315-4.805,3.315
		c-3.429,0-5.187-2.714-5.187-5.874c0-3.116,1.849-5.944,5.23-5.944c3.515,0,5.03,2.939,4.939,6.076h-8.212
		c0,0.891,0.044,1.715,0.469,2.561c0.534,1.068,1.713,1.713,2.893,1.713c1.468,0,2.538-0.844,3.026-2.18L418.315,94.406z
		 M416.583,90.69c0.021-1.871-1.025-3.45-3.028-3.45c-1.891,0-3.117,1.668-3.184,3.45H416.583z"/>
	<path clip-path="url(#SVGID_2_)" fill="#717073" d="M422.709,88.287h0.044c0.646-1.402,1.913-2.384,3.517-2.384
		c1.358,0,2.493,0.58,3.203,1.76c0.579,0.958,0.535,2.471,0.535,3.583V97.5h-1.735v-6.988c0-0.668,0.022-1.512-0.312-2.092
		c-0.38-0.646-1.203-1.025-1.938-1.025c-0.911,0-1.735,0.425-2.336,1.137c-0.735,0.891-0.89,1.914-0.89,3.049v5.92h-1.736V86.193
		h1.647V88.287z"/>
	<path clip-path="url(#SVGID_2_)" fill="#717073" d="M438.493,97.587l-1.67,0.134c-2.47,0-3.203-1.444-3.203-3.693v-6.543h-2.005
		v-1.379h2.005V83.3l1.735-0.178v2.983h2.516v1.379h-2.516v6.833c0,1.311,0.377,2.001,1.803,2.001l1.335-0.11V97.587z"/>
	<path clip-path="url(#SVGID_2_)" fill="#717073" d="M139.678,44.982c0,6.823,0.497,7.256,6.656,7.636v1.441h-18.341v-1.441
		c5.907-0.38,6.399-0.812,6.399-7.636V15.405h-2.942c-5.588,0-7.284,0.808-8.234,1.998c-0.692,0.883-1.447,2.634-2.193,5.389h-1.579
		c0.254-3.817,0.64-7.831,0.764-11.024h0.88c0.937,1.441,1.575,1.565,3.258,1.565h25.76c1.626,0,1.94-0.372,2.948-1.565h0.88
		c0.064,2.629,0.37,7.207,0.691,10.844l-1.571,0.18c-0.624-3.007-1.322-4.767-2.254-5.755c-1.069-1.193-3.021-1.632-6.918-1.632
		h-4.204V44.982z"/>
	<path clip-path="url(#SVGID_2_)" fill="#717073" d="M171.845,44.982c0,6.823,0.502,7.256,5.646,7.636v1.441h-16.703v-1.441
		c5.272-0.38,5.778-0.812,5.778-7.636V22.419c0-6.832-0.506-7.261-5.531-7.642v-1.444h15.95c4.034,0,7.61,0.573,9.931,2.132
		c2.51,1.566,4.141,4.387,4.141,8.015c0,5.21-3.202,8.905-8.279,10.968c1.114,1.874,3.706,6.208,5.577,8.959
		c2.271,3.323,3.59,5.014,5.282,6.898c1.325,1.558,2.447,2.564,4.708,3.127l-0.125,1.194h-0.874
		c-7.228-0.198-9.423-2.389-11.818-5.83c-1.938-2.811-4.582-7.45-6.336-10.405c-1.012-1.625-2.009-2.252-3.966-2.252h-3.381V44.982z
		 M171.845,34.326h3.639c2.567,0,4.584-0.317,6.274-1.698c2.715-2.132,3.643-5.2,3.643-8.262c0-6.588-4.764-9.208-9.472-9.208
		c-2.141,0-3.026,0.122-3.523,0.307c-0.379,0.122-0.561,0.439-0.561,1.688V34.326z"/>
	<path clip-path="url(#SVGID_2_)" fill="#717073" d="M215.181,13.333v1.444c-5.021,0.381-5.529,0.818-5.529,7.642v13.092
		c0,5.333,0.695,9.338,2.645,12.159c1.949,2.755,4.831,4.323,9.034,4.323c3.973,0,7.229-1.688,9.241-4.7
		c2.081-3.128,2.83-8.641,2.83-13.909v-3.378c0-6.579-0.247-10.032-0.496-11.981c-0.321-2.18-2.026-3.06-6.149-3.248v-1.444h15.069
		v1.444c-3.462,0.131-5.105,1.068-5.415,3.248c-0.241,1.949-0.491,5.402-0.491,11.981v4.201c0,7.26-1.132,12.394-4.779,16.276
		C228.443,53.364,223.916,55,219.52,55c-3.451,0-7.41-0.81-10.305-3.195c-3.321-2.702-4.831-6.957-4.831-14.099V22.418
		c0-6.824-0.508-7.261-5.777-7.642v-1.444H215.181z"/>
	<path clip-path="url(#SVGID_2_)" fill="#717073" d="M247.6,43.028c0.996,2.958,4.206,9.902,10.861,9.902
		c4.766,0,7.783-3.192,7.783-8.083c0-5.325-4.076-7.518-8.104-9.463c-2.071-0.994-10.541-3.944-10.541-11.464
		c0-6.205,4.694-11.521,12.917-11.521c1.779,0,3.913,0.366,5.231,0.809c0.8,0.249,1.693,0.566,2.383,0.697
		c0.256,2.191,0.622,4.688,1.127,8.447l-1.566,0.19c-1.064-3.695-2.83-8.077-8.554-8.077c-4.448,0-6.778,3.25-6.778,6.947
		c0,4.641,3.329,6.706,8.108,8.842c4.142,1.812,10.74,4.386,10.74,12.15c0,7.27-5.96,12.596-13.941,12.596
		c-2.262,0-4.402-0.441-5.975-0.941c-1.561-0.502-2.696-1-3.448-1.314c-0.502-1.63-1.197-6.079-1.825-9.455L247.6,43.028z"/>
	<path clip-path="url(#SVGID_2_)" fill="#717073" d="M297.057,44.982c0,6.823,0.491,7.256,6.647,7.636v1.441H285.38v-1.441
		c5.893-0.38,6.397-0.812,6.397-7.636V15.405h-2.957c-5.586,0-7.274,0.808-8.222,1.998c-0.693,0.883-1.448,2.634-2.203,5.389h-1.564
		c0.259-3.817,0.628-7.831,0.761-11.024h0.863c0.951,1.441,1.581,1.565,3.278,1.565h25.762c1.616,0,1.932-0.372,2.935-1.565h0.887
		c0.058,2.629,0.375,7.207,0.688,10.844l-1.575,0.18c-0.615-3.007-1.318-4.767-2.259-5.755c-1.062-1.193-3.017-1.632-6.912-1.632
		h-4.202V44.982z"/>
	<path clip-path="url(#SVGID_2_)" fill="#717073" d="M16.516,13.371v1.439c-5.005,0.37-5.506,0.804-5.506,7.612v13.042
		c0,5.303,0.69,9.294,2.626,12.106c1.941,2.736,4.823,4.301,9.009,4.301c3.941,0,7.2-1.686,9.189-4.679
		c2.071-3.116,2.816-8.609,2.816-13.851v-3.365c0-6.552-0.246-9.99-0.5-11.92c-0.304-2.19-1.995-3.056-6.123-3.246v-1.439h15.018
		v1.439c-3.448,0.123-5.075,1.056-5.381,3.246c-0.258,1.93-0.502,5.368-0.502,11.92v4.179c0,7.229-1.134,12.348-4.762,16.221
		c-2.681,2.869-7.191,4.48-11.571,4.48c-3.433,0-7.379-0.798-10.254-3.167c-3.31-2.685-4.818-6.931-4.818-14.036V22.422
		c0-6.808-0.495-7.242-5.757-7.612v-1.439H16.516z"/>
	<path clip-path="url(#SVGID_2_)" fill="#717073" d="M43.279,50.87c0-2.185,1.617-3.743,3.685-3.743c2.132,0,3.76,1.558,3.76,3.743
		c0,2.31-1.628,3.809-3.76,3.809C44.896,54.678,43.279,53.179,43.279,50.87"/>
	<path clip-path="url(#SVGID_2_)" fill="#717073" d="M64.345,42.948c1.006,2.926,4.193,9.859,10.82,9.859
		c4.758,0,7.76-3.182,7.76-8.049c0-5.299-4.067-7.488-8.067-9.424c-2.065-0.994-10.513-3.931-10.513-11.416
		c0-6.181,4.692-11.482,12.886-11.482c1.751,0,3.882,0.371,5.194,0.811c0.812,0.254,1.695,0.563,2.375,0.686
		c0.256,2.186,0.629,4.681,1.125,8.429l-1.565,0.183c-1.056-3.681-2.816-8.044-8.497-8.044c-4.441,0-6.765,3.236-6.765,6.919
		c0,4.619,3.323,6.674,8.072,8.801c4.12,1.813,10.699,4.366,10.699,12.106c0,7.236-5.948,12.529-13.891,12.529
		c-2.251,0-4.379-0.428-5.939-0.926c-1.561-0.5-2.688-1-3.435-1.312c-0.51-1.624-1.193-6.053-1.815-9.424L64.345,42.948z"/>
	<path clip-path="url(#SVGID_2_)" fill="#717073" d="M95.623,50.87c0-2.185,1.617-3.743,3.685-3.743c2.13,0,3.758,1.558,3.758,3.743
		c0,2.31-1.628,3.809-3.758,3.809C97.24,54.678,95.623,53.179,95.623,50.87"/>
	<path clip-path="url(#SVGID_2_)" fill-rule="evenodd" clip-rule="evenodd" fill="#0052C2" d="M368.625,13.359
		c3.186,1.28,6.342,2.622,9.446,4.069c-9.89,4.022-19.47,8.795-28.597,14.224c-3.1-1.623-6.229-3.13-9.42-4.577
		C349.189,21.738,358.717,17.183,368.625,13.359"/>
	<path clip-path="url(#SVGID_2_)" fill-rule="evenodd" clip-rule="evenodd" fill="#0052C2" d="M356.828,9.201
		c-10.289,3.268-20.181,7.539-29.562,12.694c3,1.065,5.949,2.223,8.863,3.456c9.112-5.324,18.701-9.848,28.728-13.402
		C362.198,10.945,359.51,10.047,356.828,9.201"/>
	<path clip-path="url(#SVGID_2_)" fill-rule="evenodd" clip-rule="evenodd" fill="#E31932" d="M390.088,12.97
		c-8.082-3.914-16.462-7.202-25.097-9.827c-3.022,0.856-6.039,1.824-9.015,2.859c8.881,2.633,17.507,5.947,25.832,9.947
		C384.542,14.895,387.325,13.891,390.088,12.97"/>
	<path clip-path="url(#SVGID_2_)" fill-rule="evenodd" clip-rule="evenodd" fill="#E31932" d="M403.254,9.046
		c-8.246-3.62-16.806-6.638-25.541-9.047c-2.787,0.575-5.539,1.221-8.283,1.935c8.668,2.531,17.106,5.743,25.244,9.556
		C397.532,10.624,400.393,9.792,403.254,9.046"/>
	<path clip-path="url(#SVGID_2_)" fill-rule="evenodd" clip-rule="evenodd" fill="#E31932" d="M424.443,16.137
		c-20.753,6.991-40.156,16.962-57.753,29.408c4.394,2.724,8.673,5.601,12.859,8.616c16.596-13.172,34.981-24.111,54.754-32.422
		C431.091,19.793,427.789,17.891,424.443,16.137"/>
	<path clip-path="url(#SVGID_2_)" fill-rule="evenodd" clip-rule="evenodd" fill="#E31932" d="M410.174,9.369
		c-21.548,5.702-41.834,14.893-60.107,27.028c4.121,2.025,8.144,4.19,12.119,6.492c17.914-12.392,37.783-22.039,59.004-28.432
		C417.564,12.658,413.896,10.945,410.174,9.369"/>
	<path clip-path="url(#SVGID_2_)" fill="#E31932" d="M390.333,50.547c0-1.978,1.623-3.577,3.6-3.577c1.97,0,3.584,1.599,3.584,3.577
		c0,1.981-1.614,3.614-3.584,3.614C391.956,54.162,390.333,52.529,390.333,50.547 M390.953,50.547c0,1.656,1.322,2.978,2.979,2.978
		c1.636,0,2.957-1.321,2.957-2.978c0-1.632-1.321-2.98-2.957-2.98C392.275,47.567,390.953,48.916,390.953,50.547 M395.568,52.405
		h-0.606l-0.738-1.554h-1.038v1.554h-0.574v-3.726h1.612c0.753,0,1.265,0.446,1.265,1.059c0,0.475-0.271,0.82-0.701,0.999
		L395.568,52.405z M393.186,50.359h0.963c0.463,0,0.76-0.223,0.76-0.621c0-0.333-0.271-0.558-0.685-0.558h-1.038V50.359z"/>
</g>
</svg>
