<svg viewBox="0 0 100 125">
	<g transform="translate(0,-952.36218)">
		<path style="text-indent:0;text-transform:none;direction:ltr;block-progression:tb;baseline-shift:baseline;color:#000000;enable-background:accumulate;" d="m 49.926221,960.36218 c -14.3108,0 -25.951,11.6402 -25.951,25.951 0,5.2084 2.4245,10.9023 5.3578,16.44802 2.933,5.5451 6.4321,10.9354 8.7681,15.1953 l 10.5247,19.2409 a 1.4824994,1.4824994 0 0 0 2.6009,3e-4 l 10.5346,-19.2408 a 0,0 0 0 0 0,0 c 2.3307,-4.259 5.83,-9.6495 8.7644,-15.195 2.9344,-5.54553 5.3614,-11.23943 5.3614,-16.44833 0,-14.3108 -11.6407,-25.951 -25.9609,-25.951 z m 0,2.9647 c 12.718,0 22.9962,10.2789 22.9962,22.9863 0,4.2485 -2.1679,9.6773 -5.017,15.06172 -2.8492,5.3843 -6.3219,10.7308 -8.7447,15.1582 0,0 0,0 0,0 l -9.2338,16.8646 -9.2246,-16.8642 a 1.4824994,1.4824994 0 0 0 -10e-4,0 c -2.4273,-4.4265 -5.8996,-9.7728 -8.7475,-15.157 -2.8479,-5.38422 -5.0141,-10.81292 -5.0141,-15.06202 0,-12.7074 10.2789,-22.9863 22.9863,-22.9863 z" fill="#000000" fill-opacity="1" fill-rule="evenodd" stroke="none" marker="none" visibility="visible" display="inline" overflow="visible"/>
		<path style="text-indent:0;text-transform:none;direction:ltr;block-progression:tb;baseline-shift:baseline;color:#000000;enable-background:accumulate;" d="m 49.926221,973.19938 c -6.7706,0 -12.2936,5.523 -12.2936,12.2936 0,6.7793 5.523,12.3035 12.2936,12.3035 6.7793,0 12.3035,-5.5242 12.3035,-12.3035 0,-6.7706 -5.5242,-12.2936 -12.3035,-12.2936 z m 0,2.9647 c 5.1785,0 9.3388,4.1617 9.3388,9.3289 0,5.1784 -4.1603,9.3388 -9.3388,9.3388 -5.1672,0 -9.3289,-4.1604 -9.3289,-9.3388 0,-5.1672 4.1617,-9.3289 9.3289,-9.3289 z" fill="#000000" fill-opacity="1" fill-rule="evenodd" stroke="none" marker="none" visibility="visible" display="inline" overflow="visible"/>
		<path style="text-indent:0;text-transform:none;direction:ltr;block-progression:tb;baseline-shift:baseline;color:#000000;enable-background:accumulate;" d="m 28.857321,1025.8328 c -0.4943,0 -0.8095,0.1992 -1.1109,0.5006 l -13.7562,15.5647 c -0.7661,1.1094 0.1333,2.4641 1.1108,2.4641 23.2203,0 46.4404,0 69.6607,0 1.4366,0 1.9968,-1.5778 1.1102,-2.4644 l -13.7661,-15.5647 c -0.1386,-0.1567 -0.3107,-0.2835 -0.5014,-0.3694 -0.1907,-0.086 -0.3997,-0.1309 -0.6088,-0.1309 l -7.6984,0 c -2.1239,0 -1.8025,2.9647 0,2.9647 l 7.0307,0 11.1438,12.6 c -21.0273,0 -42.0547,0 -63.082,0 l 11.1358,-12.6 7.0301,0 c 1.9423,0 1.8035,-2.9647 0,-2.9647 z" fill="#000000" fill-opacity="1" fill-rule="evenodd" stroke="none" marker="none" visibility="visible" display="inline" overflow="visible"/>
	</g>
</svg>