<svg viewBox="0 0 100 125">
	<path d="M71.935,5.48C71.748,5.174,71.369,5,71,5H29c-0.365,0-1.035,0.103-1.265,0.48C20.277,17.746,16.17,33.468,16.17,49.75  c0,17.021,4.446,33.283,12.521,45.792C28.882,95.839,29.203,96,29.531,96c0.092,0,0.4,0,0.469,0h40c0.02,0,0.111,0,0.139,0  c0.328,0,0.65-0.161,0.841-0.458C79.054,83.033,83.5,66.771,83.5,49.75C83.5,33.468,79.393,17.746,71.935,5.48z M78.547,73h-4.451  c1.37-7.454,2.075-15.265,2.075-23.25c0-7.448-0.611-14.755-1.799-21.75h4.547c1.689,6.932,2.582,14.275,2.582,21.75  C81.5,57.789,80.479,65.646,78.547,73z M77.392,77H22.278c-0.209-0.661-0.406-1.33-0.6-2h56.314  C77.798,75.67,77.602,76.339,77.392,77z M75.63,82h-3.57c0.285-1.046,0.539-2.042,0.767-3h3.904  C76.381,80.012,76.016,81.014,75.63,82z M73.913,86H25.76c0,0-0.599-1.31-0.893-2h49.935C74.516,84.674,74.218,85.339,73.913,86z   M69.582,94h-1.727c0.843-1.932,1.631-3.934,2.345-6h2.756C71.919,90.081,70.795,92.086,69.582,94z M61.839,94  c0.492-1.875,0.965-3.882,1.411-6h4.824c-0.733,2.069-1.531,4.079-2.394,6H61.839z M54.829,94c0.172-1.966,0.328-3.971,0.464-6  h5.911c-0.454,2.125-0.933,4.136-1.432,6H54.829z M39.906,94c-0.523-1.952-1-3.96-1.431-6h5.893c0.146,2.092,0.303,4.101,0.47,6  H39.906z M33.989,94c-0.863-1.921-1.661-3.931-2.394-6h4.83c0.425,2.038,0.901,4.043,1.417,6H33.989z M46.373,88h6.914  c-0.137,2.029-0.292,4.037-0.466,6h-5.976C46.677,92.104,46.519,90.094,46.373,88z M64.356,82c0.161-0.975,0.317-1.976,0.466-3  h5.946c-0.233,0.955-0.492,1.95-0.783,3H64.356z M62.33,82h-6.665c0.056-0.983,0.106-1.985,0.155-3h6.98  C62.649,80.025,62.493,81.027,62.33,82z M53.662,82h-7.664c-0.053-0.983-0.105-1.985-0.155-3h7.975  C53.769,80.015,53.718,81.017,53.662,82z M43.84,79c0.05,1.015,0.102,2.017,0.156,3h-6.66c-0.16-0.982-0.314-1.985-0.463-3H43.84z   M34.851,79c0.148,1.015,0.301,2.016,0.46,3h-5.627c-0.291-1.05-0.55-2.045-0.783-3H34.851z M26.843,79  c0.228,0.958,0.482,1.954,0.767,3h-3.57c-0.387-0.986-0.751-1.988-1.101-3H26.843z M21.824,24c0.058,0.01,0.116,0,0.176,0h55.851  c0.196,0.661,0.377,1.33,0.557,2H21.261C21.445,25.319,21.624,24.672,21.824,24z M23.479,19h3.741c-0.263,1.02-0.505,2.019-0.727,3  h-4.047C22.774,20.989,23.116,19.987,23.479,19z M25.087,15h49.497c0.286,0.66,0.564,1.326,0.834,2H24.253  C24.522,16.326,24.8,15.66,25.087,15z M37.447,7c-0.464,1.861-0.903,3.844-1.327,6h-5.054c0.707-2.109,1.464-4.119,2.261-6H37.447z   M44.712,7c-0.16,1.912-0.31,3.921-0.448,6h-6.105c0.431-2.16,0.877-4.141,1.35-6H44.712z M60.153,7c0.493,1.96,0.939,3.969,1.342,6  h-6.089c-0.138-2.079-0.288-4.088-0.448-6H60.153z M66.335,7c0.818,1.929,1.567,3.941,2.255,6h-5.055  c-0.394-2.03-0.84-4.034-1.326-6H66.335z M70.505,7c1.144,1.919,2.205,3.922,3.18,6h-2.981c-0.669-2.058-1.414-4.059-2.213-6H70.505  z M35.077,19c-0.151,0.986-0.296,1.985-0.437,3h-6.091c0.224-0.979,0.469-1.976,0.737-3H35.077z M37.099,19h6.818  c-0.051,0.986-0.099,1.985-0.143,3H36.66C36.802,20.985,36.948,19.986,37.099,19z M45.919,19h7.832c0.052,0.986,0.101,1.986,0.15,3  h-8.125C45.82,20.986,45.868,19.986,45.919,19z M55.903,22c-0.048-1.015-0.098-2.014-0.15-3h6.82c0.153,0.964,0.299,1.962,0.439,3  H55.903z M65.033,22c-0.14-1.038-0.285-2.036-0.436-3h5.796c0.253,0.971,0.496,1.97,0.73,3H65.033z M73.177,22  c-0.232-1.032-0.472-2.03-0.72-3h3.734c0,0,0.701,1.977,1.032,3H73.177z M53.401,13h-7.132c0.138-2.081,0.289-4.09,0.45-6h6.232  C53.112,8.91,53.263,10.919,53.401,13z M74.17,49.75c0,7.992-0.713,15.807-2.104,23.25h-6.491c0.824-7.416,1.255-15.223,1.255-23.25  c0-7.462-0.375-14.766-1.093-21.75h6.607C73.551,34.984,74.17,42.295,74.17,49.75z M36.104,73  c-0.832-7.408-1.264-15.218-1.264-23.25c0-7.496,0.38-14.802,1.11-21.75h7.589c-0.242,6.943-0.369,14.246-0.369,21.75  c0,8,0.143,15.808,0.417,23.25H36.104z M45.587,73c-0.274-7.438-0.417-15.248-0.417-23.25c0-7.506,0.127-14.81,0.369-21.75h8.592  c0.242,6.94,0.369,14.244,0.369,21.75c0,8.002-0.143,15.811-0.417,23.25H45.587z M56.131,28h7.598  c0.724,6.978,1.101,14.284,1.101,21.75c0,8.032-0.432,15.842-1.264,23.25h-7.483c0.274-7.442,0.417-15.25,0.417-23.25  C56.5,42.246,56.374,34.943,56.131,28z M27.335,28h6.606c-0.723,6.956-1.101,14.259-1.101,21.75c0,8.027,0.431,15.834,1.255,23.25  h-6.491C26.213,65.557,25.5,57.742,25.5,49.75C25.5,42.275,26.121,34.965,27.335,28z M29.165,7h1.994  c-0.777,1.892-1.513,3.902-2.2,6h-2.973C26.961,10.922,28.021,8.919,29.165,7z M20.752,28h4.556  C24.114,34.975,23.5,42.282,23.5,49.75c0,7.985,0.704,15.796,2.075,23.25h-4.451c-1.933-7.354-2.953-15.211-2.953-23.25  C18.17,42.275,19.063,34.932,20.752,28z M26.713,88h2.756c0.714,2.066,1.502,4.068,2.345,6h-1.727  C28.875,92.086,27.751,90.081,26.713,88z"/>
</svg>