<svg class="svg-icon" viewBox="0 0 20 20">
	<path fill="#000000" d="M9.394,4.925L5.743,6.953H2.575c-0.24,0-0.435,0.195-0.435,0.435v5.06c0,0.24,0.194,0.436,0.435,0.436h3.168l3.651,2.027c0.066,0.037,0.138,0.055,0.211,0.055c0.077,0,0.152-0.02,0.221-0.061c0.132-0.078,0.214-0.221,0.214-0.373V5.305c0-0.154-0.082-0.296-0.214-0.375C9.694,4.853,9.528,4.85,9.394,4.925z M9.171,13.791l-3.104-1.725c-0.064-0.035-0.138-0.055-0.212-0.055H3.01V7.822h2.845c0.074,0,0.147-0.019,0.212-0.055l3.104-1.723V13.791z"></path>
	<path fill="#000000" d="M15.332,4.923c-0.166,0.174-0.16,0.449,0.014,0.615c0.037,0.036,3.707,3.648-0.057,8.988c-0.137,0.197-0.09,0.467,0.107,0.605c0.074,0.055,0.162,0.08,0.25,0.08c0.135,0,0.27-0.064,0.355-0.186c4.188-5.943-0.014-10.075-0.055-10.116C15.773,4.744,15.496,4.75,15.332,4.923z"></path>
	<path fill="#000000" d="M12.479,6.811c-0.166,0.174-0.158,0.449,0.014,0.614c0.088,0.084,2.137,2.102-0.055,5.211c-0.139,0.197-0.09,0.469,0.105,0.607c0.076,0.053,0.164,0.078,0.25,0.078c0.135,0,0.271-0.064,0.355-0.184c2.617-3.716-0.027-6.316-0.055-6.341C12.922,6.631,12.643,6.639,12.479,6.811z"></path>
</svg>